<?xml version="1.0"?><!DOCTYPE svg  PUBLIC '-//W3C//DTD SVG 1.1//EN'  'http://www.w3.org/Graphics/SVG/1.1/DTD/svg11.dtd'><svg height="512px" id="Layer_1" style="enable-background:new 0 0 512 512;" version="1.1" viewBox="0 0 512 512" width="512px" xml:space="preserve" xmlns="http://www.w3.org/2000/svg" xmlns:xlink="http://www.w3.org/1999/xlink"><g><path d="M389.241,154.123c0,0-0.02,0.079-0.039,0.237c-0.02,0.04-0.02,0.099-0.02,0.158   c-0.02,0.099-0.04,0.197-0.059,0.315c-0.02,0.059-0.039,0.138-0.039,0.217c-0.493,3.272-2.327,15.082-4.969,31.979   c-1.775,11.534-3.923,25.433-6.27,40.615c-0.355,2.247-0.69,4.515-1.045,6.822c-0.611,3.943-1.222,7.965-1.853,12.046   c-5.383,34.976-11.317,73.915-15.99,105.263c-4.791,32.156-8.261,56.367-8.399,60.232c-0.02,0.099-0.02,0.178-0.02,0.237   c0,9.799-10.173,18.691-26.616,25.118c-16.443,6.428-39.156,10.41-64.254,10.41c-6.901,0-13.644-0.295-20.111-0.887h-0.059   c-17.015-1.498-32.196-4.87-44.104-9.523c-16.443-6.427-26.616-15.319-26.616-25.118c0-2.958-3.509-27.543-8.419-60.468   c-4.673-31.368-10.607-70.287-15.99-105.263c-0.611-4.081-1.242-8.103-1.833-12.046c-0.355-2.287-0.709-4.575-1.065-6.802   c-5.757-37.401-10.37-67.113-11.219-72.613c0-0.079-0.019-0.158-0.039-0.217c-0.02-0.119-0.039-0.217-0.059-0.315   c0-0.059,0-0.118-0.02-0.158c-0.02-0.158-0.039-0.237-0.039-0.237l129.573-23.068L389.241,154.123z" style="fill:#FFF1D9;"/><path d="M380.901,235.569c0,0-0.237,1.301-0.631,3.608c0,0.02,0,0.039-0.02,0.059   c-3.115,17.606-16.364,92.921-16.364,101.655c0,3.786-1.716,7.453-4.929,10.883c-5.106,5.52-13.998,10.43-25.591,14.432   c-10.272,3.529-22.674,6.329-36.474,8.123c-11.554,1.538-24.113,2.366-37.223,2.366c-28.785,0-54.85-4.002-73.698-10.489   c-11.612-4.002-20.504-8.911-25.61-14.432c-3.214-3.431-4.929-7.098-4.929-10.883c0-8.734-13.249-84.048-16.364-101.655   c-0.02-0.02-0.02-0.039-0.02-0.059c-0.394-2.307-0.631-3.608-0.631-3.608c1.163-0.394,2.543-0.769,4.121-1.104   c23.699-5.126,90.141-3.372,117.132-3.372c12.933,0,34.956-0.394,56.978-0.257c23.836,0.158,47.732,0.966,60.074,3.608   c0.02,0,0.059,0.02,0.079,0.02C378.358,234.8,379.738,235.174,380.901,235.569z" style="fill:#A37948;"/><path d="M380.901,235.569c0,1.222-0.217,2.425-0.631,3.608c0,0.02,0,0.039-0.02,0.059   c-0.887,2.524-2.682,4.949-5.303,7.275c-10.036,8.971-32.019,16.364-60.488,20.563c-16.443,2.425-35.075,3.805-54.79,3.805   c-53.844,0-99.467-10.213-115.299-24.369c-2.622-2.327-4.416-4.752-5.303-7.275c-0.02-0.02-0.02-0.039-0.02-0.059   c-0.414-1.183-0.631-2.386-0.631-3.608c0-2.721,1.065-5.363,3.056-7.906c12.342-15.694,60.567-27.405,118.197-27.405   c20.859,0,40.476,1.538,57.609,4.259c30.185,4.732,52.661,13.111,60.567,23.127C379.837,230.186,380.901,232.848,380.901,235.569z" style="fill:#AC8457;"/><path d="M389.241,154.123c0,0-2.701,15.418-5.579,32.945h-0.02c-0.434,2.74-0.887,5.54-1.34,8.34   c-2.918,17.902-5.619,35.804-5.619,40.161c0,9.424-13.111,17.941-34.286,24.093c-8.162,2.366-17.527,4.397-27.819,6.013   c-16.384,2.543-35.055,3.982-54.908,3.982c-32.314,0-61.573-3.825-82.747-9.996c-21.175-6.151-34.266-14.669-34.266-24.093   c0-4.357-2.701-22.259-5.619-40.161c-3.332-20.643-6.94-41.285-6.94-41.285l129.573-23.068L389.241,154.123z" style="fill:#FFF1D9;"/><path d="M389.241,154.123c0,0-3.608,20.642-6.94,41.285c-4.298,1.755-8.991,3.411-14.018,4.968   c-27.8,8.556-66.206,13.84-108.614,13.84c-42.429,0-80.815-5.284-108.615-13.84c-5.027-1.558-9.72-3.214-14.018-4.968   c-3.332-20.643-6.94-41.285-6.94-41.285l129.573-23.068L389.241,154.123z" style="fill:#F0DAB9;"/><path d="M409.6,150.361c0,13.052-17.192,24.869-44.989,33.423c-27.796,8.553-66.196,13.844-108.611,13.844   c-42.416,0-80.816-5.291-108.612-13.844c-27.796-8.554-44.989-20.371-44.989-33.423s3.717-38.105,16.684-52.01   c27.796-8.554,94.501,4.743,136.916,4.743c42.415,0,109.917-12.052,137.713-3.499C406.073,115.979,409.6,137.309,409.6,150.361z" style="fill:#F5E5CB;"/><ellipse cx="256" cy="107.296" rx="139.947" ry="43.065" style="fill:#FFF1D9;"/><ellipse cx="244.882" cy="109.65" rx="114.792" ry="32.941" style="fill:#F7E6CB;"/><path d="M359.667,109.644c0,3.924-2.385,7.669-6.762,11.159c-15.911-12.697-58.261-21.786-108.023-21.786   c-18.395,0-35.765,1.242-51.163,3.45h-0.02c-26.281,3.765-46.805,10.331-56.84,18.336c-3.017-2.405-5.087-4.929-6.072-7.552   c-0.119-0.295-0.217-0.591-0.296-0.887c-0.178-0.611-0.296-1.222-0.355-1.853c-0.02-0.276-0.039-0.572-0.039-0.867   c0-0.276,0.02-0.572,0.039-0.848c0.02-0.276,0.059-0.572,0.118-0.848c0.04-0.276,0.099-0.552,0.178-0.809   c0.04-0.197,0.099-0.394,0.178-0.591c0.039-0.178,0.099-0.355,0.178-0.533c0.394-1.005,0.926-2.011,1.636-3.016   c0.197-0.256,0.394-0.532,0.611-0.788c0.197-0.257,0.434-0.532,0.67-0.789c0.236-0.276,0.493-0.532,0.749-0.788   c0.256-0.256,0.532-0.532,0.809-0.789c0.828-0.769,1.774-1.518,2.8-2.267c0.315-0.236,0.651-0.473,0.986-0.71   c0.749-0.512,1.538-1.005,2.366-1.498c0.414-0.237,0.828-0.473,1.242-0.71c0.414-0.237,0.848-0.474,1.301-0.71   c0.434-0.237,0.887-0.473,1.341-0.69c0.473-0.237,0.946-0.473,1.419-0.69c1.932-0.907,3.983-1.794,6.191-2.622   c0.552-0.217,1.104-0.434,1.675-0.631c0.572-0.217,1.144-0.414,1.716-0.611c4.357-1.518,9.168-2.918,14.353-4.18   c1.104-0.276,2.228-0.533,3.351-0.789c1.44-0.315,2.898-0.631,4.377-0.927c1.321-0.276,2.662-0.532,4.042-0.788   c0.966-0.178,1.932-0.355,2.938-0.532c4.594-0.809,9.404-1.518,14.412-2.129c0.986-0.118,1.991-0.236,3.017-0.355   c0.513-0.059,1.045-0.118,1.577-0.177c1.222-0.138,2.444-0.257,3.687-0.375c0.355-0.039,0.729-0.079,1.084-0.099   c1.558-0.157,3.135-0.295,4.712-0.414c0.788-0.079,1.557-0.138,2.346-0.177c1.834-0.138,3.687-0.276,5.54-0.375   c0.651-0.039,1.281-0.079,1.932-0.099c0-0.02,0.02-0.02,0.02-0.02c6.881-0.355,13.959-0.552,21.195-0.552   C308.288,76.718,359.667,91.466,359.667,109.644z" style="fill:#F0DCC0;"/><path d="M163.593,124.707c0,3.313,1.735,6.507,4.909,9.523c-14.116-3.608-25.118-8.221-31.644-13.426   c10.035-8.005,30.559-14.57,56.84-18.336C175.009,108.323,163.593,116.131,163.593,124.707z" style="fill:#F2DEBD;"/><path d="M223.687,77.27c0,0-0.02,0-0.02,0.02c-11.967,5.954-22.318,14.255-29.949,25.177h-0.02   c-26.281,3.765-46.805,10.331-56.84,18.336c-3.017-2.405-5.087-4.929-6.072-7.552c-0.119-0.295-0.217-0.591-0.296-0.887   c-0.178-0.611-0.296-1.222-0.355-1.853c-0.02-0.276-0.039-0.572-0.039-0.867c0-0.276,0.02-0.572,0.039-0.848   c0.02-0.276,0.059-0.572,0.118-0.848c0.04-0.276,0.099-0.552,0.178-0.809c0.04-0.197,0.099-0.394,0.178-0.591   c0.039-0.178,0.099-0.355,0.178-0.533c0.394-1.005,0.926-2.011,1.636-3.016c0.197-0.256,0.394-0.532,0.611-0.788   c0.197-0.257,0.434-0.532,0.67-0.789c0.236-0.276,0.493-0.532,0.749-0.788c0.256-0.256,0.532-0.532,0.809-0.789   c0.828-0.769,1.774-1.518,2.8-2.267c0.315-0.236,0.651-0.473,0.986-0.71c0.749-0.512,1.538-1.005,2.366-1.498   c0.414-0.237,0.828-0.473,1.242-0.71c0.414-0.237,0.848-0.474,1.301-0.71c0.434-0.237,0.887-0.473,1.341-0.69   c0.473-0.237,0.946-0.473,1.419-0.69c1.932-0.907,3.983-1.794,6.191-2.622c0.552-0.217,1.104-0.434,1.675-0.631   c0.572-0.217,1.144-0.414,1.716-0.611c4.357-1.518,9.168-2.918,14.353-4.18c1.104-0.276,2.228-0.533,3.351-0.789   c1.44-0.315,2.898-0.631,4.377-0.927c1.321-0.276,2.662-0.532,4.042-0.788c0.966-0.178,1.932-0.355,2.938-0.532   c4.594-0.809,9.404-1.518,14.412-2.129c0.986-0.118,1.991-0.236,3.017-0.355c0.513-0.059,1.045-0.118,1.577-0.177   c1.222-0.138,2.444-0.257,3.687-0.375c0.355-0.039,0.729-0.079,1.084-0.099c1.558-0.157,3.135-0.295,4.712-0.414   c0.788-0.079,1.557-0.138,2.346-0.177c1.834-0.138,3.687-0.276,5.54-0.375C222.386,77.349,223.037,77.31,223.687,77.27z" style="fill:#E8D1B3;"/><path d="M370.499,68.921c0,0,10.174,12.722,10.174,26.561c0,4.135-1.556,9.076-3.732,13.972l8.706,8.894   C390.621,91.808,370.499,68.921,370.499,68.921z" style="fill:#FFF5E3;"/><path d="M380.665,95.488h-17.409c0-22.871-12.421-26.577-12.421-26.577h19.657   C370.491,68.911,380.665,81.647,380.665,95.488z" style="fill:#FFF5E3;"/><path d="M365.196,93.516c-0.386-12.294-4.365-19.033-7.954-22.634h12.263   c1.946,2.679,8.362,12.238,9.116,22.634H365.196z" style="fill:#DBC7A0;"/><path d="M363.256,118.338c0,0,0.079-1.242,0-3.214V95.488h17.409l4.988,22.85H363.256z" style="fill:#F2DEBD;"/><path d="M363.256,118.338v-3.214C363.335,117.097,363.256,118.338,363.256,118.338z" style="fill:#F2DEBD;"/><path d="M363.256,95.488v19.637c-0.217-6.388-1.952-20.347-12.421-23.205V68.911   C350.835,68.911,363.256,72.617,363.256,95.488z" style="fill:#F7E6CB;"/><path d="M363.256,118.338v-3.214C363.335,117.097,363.256,118.338,363.256,118.338z" style="fill:#F7E6CB;"/><path d="M358.957,351.774c-4.791,32.156-8.261,56.367-8.399,60.232c-0.02,0.099-0.02,0.178-0.02,0.237   c0,9.799-10.173,18.691-26.616,25.118c-16.443,6.428-39.156,10.41-64.254,10.41c-6.901,0-13.644-0.295-20.111-0.887   c27.543-0.414,45.622-31.545,57.334-72.554c13.801-1.794,26.202-4.594,36.474-8.123   C344.959,362.204,353.851,357.294,358.957,351.774z" style="fill:#F0DAB9;"/><path d="M377.845,227.643c1.991,2.543,3.056,5.205,3.056,7.926c0,1.222-0.217,2.425-0.631,3.608   c0,0.02,0,0.039-0.02,0.059c-3.115,17.606-16.364,92.921-16.364,101.655c0,3.786-1.716,7.453-4.929,10.883   c-5.106,5.52-13.998,10.43-25.591,14.432c-10.272,3.529-22.674,6.329-36.474,8.123c9.424-32.985,14.727-72.337,17.567-107.254   c0.039-0.473,0.079-0.946,0.118-1.4c10.292-1.617,19.657-3.647,27.819-6.013c21.175-6.151,34.286-14.669,34.286-24.093   c0-0.315,0.02-0.671,0.039-1.124C377.057,228.688,377.845,227.643,377.845,227.643z" style="fill:#8C6239;"/><path d="M383.642,187.068c-0.434,2.74-0.887,5.54-1.34,8.34c-2.918,17.902-5.619,35.804-5.619,40.161   c0,9.424-13.111,17.941-34.286,24.093c-8.162,2.366-17.527,4.397-27.819,6.013c0.986-12.362,1.636-24.132,2.07-34.838   c0.296-7.216,0.473-13.939,0.572-20.051c0.039-2.169,0.059-4.259,0.059-6.27c0.02-1.439,0.02-2.82,0.02-4.16L383.642,187.068z" style="fill:#F0DAB9;"/></g></svg>